<svg xmlns="http://www.w3.org/2000/svg" viewBox="0 0 64 64" role="img" aria-label="Dragon of North favicon">
    <defs>
        <linearGradient id="bg" x1="0" y1="0" x2="1" y2="1">
            <stop offset="0%" stop-color="#0a0a12"/>
            <stop offset="100%" stop-color="#6B57FF"/>
        </linearGradient>
        <linearGradient id="flame" x1="0" y1="0" x2="0" y2="1">
            <stop offset="0%" stop-color="#d9d3ff"/>
            <stop offset="100%" stop-color="#7d69ff"/>
        </linearGradient>
    </defs>

    <rect width="64" height="64" rx="14" fill="url(#bg)"/>
    <path d="M17 45 C22 33,27 28,34 24 C40 21,48 20,54 23 C49 24,44 27,40 32 C37 35,35 39,35 43 C30 46,24 46,17 45 Z"
          fill="url(#flame)"/>
    <path d="M24 37 C27 33,30 30,34 28 C33 31,34 34,37 37 C35 40,30 41,25 40 Z" fill="#0a0a12" opacity="0.95"/>
    <circle cx="38.5" cy="30.5" r="1.8" fill="#ffffff"/>
    <circle cx="39" cy="30.5" r="0.9" fill="#6B57FF"/>
    <path d="M39 24 L45 14 L47.5 23.5 Z" fill="#8a7cff"/>
</svg>

